<svg width="15" height="15" viewBox="0 0 15 15" fill="none" xmlns="http://www.w3.org/2000/svg">
<path d="M10.6425 0H4.3575C1.6275 0 0 1.6275 0 4.3575V10.635C0 13.3725 1.6275 15 4.3575 15H10.635C13.365 15 14.9925 13.3725 14.9925 10.6425V4.3575C15 1.6275 13.3725 0 10.6425 0ZM11.5125 5.2875L9.7575 10.9425C9.3375 12.285 7.455 12.3075 7.0125 10.9725L6.4875 9.42C6.345 8.9925 6.0075 8.6475 5.58 8.5125L4.02 7.9875C2.7 7.545 2.715 5.6475 4.0575 5.2425L9.7125 3.48C10.8225 3.1425 11.865 4.185 11.5125 5.2875Z" fill="#1BA672"/>
</svg>
